# xmcd
#
# Track frame offsets: 
#        225
#        17386
#        44281
#        62760
#        82681
#        110814
#        127570
#        148523
#        173708
#        194764
#        216450
#        242574
#        258529
#        275364
#
# Disc length: 3875 seconds
#
# Revision: 0
# Processed by: cddbd v1.5.1PL0 Copyright (c) Steve Scherf et al.
# Submitted via: ExactAudioCopy v0.95a4
#
DISCID=c20f200e
DTITLE=Bryan Adams - World Ballad Collection
DYEAR=1900
DGENRE=Pop
TTITLE0=Cloud 903
TTITLE1=Do I Have To SAy The Words
TTITLE2=Heaven
TTITLE3=I'm Ready (Live)
TTITLE4=Everything I Do (I Do It For You)
TTITLE5=I Finally Found My Way (With Barbara Streisand)
TTITLE6=All For Love (With Rod Steart and Sting)
TTITLE7=Thought I'd Died And Gone To Heaven
TTITLE8=Lie To Me
TTITLE9=Have You Realy Loved A Woman
TTITLE10=Please Forgive Me
TTITLE11=Straight From The Heart
TTITLE12=Love Someone (Live)
TTITLE13=When You're Gone
EXTD=
EXTT0=
EXTT1=
EXTT2=
EXTT3=
EXTT4=
EXTT5=
EXTT6=
EXTT7=
EXTT8=
EXTT9=
EXTT10=
EXTT11=
EXTT12=
EXTT13=
PLAYORDER=
